<?xml version="1.0" standalone="no"?><!DOCTYPE svg PUBLIC "-//W3C//DTD SVG 1.1//EN" "http://www.w3.org/Graphics/SVG/1.1/DTD/svg11.dtd"><svg t="1581044973386" class="icon" viewBox="0 0 1024 1024" version="1.1" xmlns="http://www.w3.org/2000/svg" p-id="926" xmlns:xlink="http://www.w3.org/1999/xlink" width="200" height="200"><defs><style type="text/css">@font-face { font-family: rbicon; src: url("chrome-extension://dipiagiiohfljcicegpgffpbnjmgjcnf/fonts/rbicon.woff2") format("woff2"); font-weight: normal; font-style: normal; }
</style></defs><path d="M828.8 195.2C744.2 110.6 631.7 64 512 64s-232.2 46.6-316.8 131.2C110.6 279.8 64 392.3 64 512c0 119.7 46.6 232.2 131.2 316.8S392.3 960 512 960s232.2-46.6 316.8-131.2S960 631.7 960 512c0-119.7-46.6-232.2-131.2-316.8zM512 896c-211.7 0-384-172.3-384-384s172.3-384 384-384 384 172.3 384 384-172.3 384-384 384z" p-id="927"></path><path d="M630.8 598.8C675.4 563.7 704 509.2 704 448c0-106-86-192-192-192s-192 86-192 192c0 61.2 28.6 115.7 73.2 150.8-98.7 39.5-173.1 126.8-194.8 233.2H265c28.6-110.2 127.8-192 247-192s218.4 81.8 246.9 192h66.6c-21.6-106.4-96-193.7-194.7-233.2zM384 448c0-70.7 57.3-128 128-128s128 57.3 128 128-57.3 128-128 128-128-57.3-128-128z" p-id="928"></path></svg>