<?xml version="1.0" standalone="no"?><!DOCTYPE svg PUBLIC "-//W3C//DTD SVG 1.1//EN" "http://www.w3.org/Graphics/SVG/1.1/DTD/svg11.dtd"><svg t="1580886797049" class="icon" viewBox="0 0 1024 1024" version="1.1" xmlns="http://www.w3.org/2000/svg" p-id="3938" xmlns:xlink="http://www.w3.org/1999/xlink" width="200" height="200"><defs><style type="text/css">@font-face { font-family: rbicon; src: url("chrome-extension://dipiagiiohfljcicegpgffpbnjmgjcnf/fonts/rbicon.woff2") format("woff2"); font-weight: normal; font-style: normal; }
</style></defs><path d="M390.88 360v-51.2c0-73.12 57.056-132.8 128-132.8s128 59.68 128 132.8v51.2h88.48a16 16 0 0 1 15.984 14.912l30.368 448a16 16 0 0 1-15.952 17.088H272a16 16 0 0 1-15.968-17.088l30.4-448a16 16 0 0 1 15.952-14.912h88.48z m48 0h160v-51.2c0-47.072-36.064-84.8-80-84.8s-80 37.728-80 84.8v51.2z m-132.64 432h425.28l-26.048-384H332.288l-26.048 384z" p-id="3939"></path></svg>